# xmcd
#
# Track frame offsets:
#	150
#	10175
#	21435
#	32962
#	41907
#	53350
#	63017
#	70102
#	80085
#	90297
#	100067
#	110002
#
# Disc length: 1630 seconds
#
# Revision: 0
# Processed by: cddbd v1.4PL0 Copyright (c) Steve Scherf et al.
# Submitted via: audiograbber 1.81.02
#
DISCID=91065c0c
DTITLE=George Shuffler - Aged to Perfection
DYEAR=1900
DGENRE=
TTITLE0=Nine Pound Hammer
TTITLE1=Give the World a Sunny Smile
TTITLE2=Love Please Come Home
TTITLE3=Down in the Willow Garden
TTITLE4=I am a Pilgrim
TTITLE5=My Homes Across the Blue Ridge Mountains
TTITLE6=Freight Train
TTITLE7=Its Mighty Dark to Travel
TTITLE8=Millers Cave
TTITLE9=Sweet Sunny South
TTITLE10=Little Joe
TTITLE11=What a Friend We Have in Jesus
EXTD=
EXTT0=
EXTT1=
EXTT2=
EXTT3=
EXTT4=
EXTT5=
EXTT6=
EXTT7=
EXTT8=
EXTT9=
EXTT10=
EXTT11=
PLAYORDER=
